

Release info:

General
Format                                   : Matroska
Format version                           : Version 2
File size                                : 692 MiB
Duration                                 : 1h 54mn
Overall bit rate                         : 843 Kbps

Video
ID                                       : 1
Format                                   : MPEG-4 Visual
Format profile                           : Advanced Simple@L5
Format settings, BVOP                    : Yes
Format settings, QPel                    : No
Format settings, GMC                     : No warppoints
Format settings, Matrix                  : Default (H.263)
Codec ID                                 : V_MS/VFW/FOURCC / XVID
Codec ID/Hint                            : XviD
Duration                                 : 1h 54mn
Bit rate                                 : 699 Kbps
Width                                    : 640 pixels
Height                                   : 352 pixels
Display aspect ratio                     : 16:9
Frame rate mode                          : Constant
Frame rate                               : 23.976 fps
Color space                              : YUV
Chroma subsampling                       : 4:2:0
Bit depth                                : 8 bits
Scan type                                : Progressive
Compression mode                         : Lossy
Bits/(Pixel*Frame)                       : 0.129
Stream size                              : 573 MiB (83%)
Writing library                          : XviD 64
Language                                 : English
Default                                  : Yes
Forced                                   : No

Audio
ID                                       : 2
Format                                   : MPEG Audio
Format version                           : Version 1
Format profile                           : Layer 3
Mode                                     : Joint stereo
Mode extension                           : MS Stereo
Muxing mode                              : Header stripping
Codec ID                                 : A_MPEG/L3
Codec ID/Hint                            : MP3
Duration                                 : 1h 54mn
Bit rate mode                            : Constant
Bit rate                                 : 128 Kbps
Channel(s)                               : 2 channels
Sampling rate                            : 48.0 KHz
Compression mode                         : Lossy
Stream size                              : 105 MiB (15%)
Language                                 : English
Default                                  : Yes
Forced                                   : No

Text
ID                                       : 3
Format                                   : UTF-8
Codec ID                                 : S_TEXT/UTF8
Codec ID/Info                            : UTF-8 Plain Text
Language                                 : English
Default                                  : Yes
Forced                                   : No



Source:
credit to original movie ripper  (Thanks)

IMDB Info:

An ex-mercenary known for finding missing children is hired by a mixed martial arts fighter whose daughter has been kidnapped.

Director: Ernie Barbarash
Writers: Chad Law, Evan Law
Stars: Jean-Claude Van Damme, Joe Flanigan and Anna-Louise Plowman

Ratings: 6.1/10 from 4,252 users

Genres: Action | Crime | Thriller
 
http://www.imdb.com/title/tt1975249

Screen Shot:
 
http://www.shotpix.com/images/55203355057185535509.png 
http://www.shotpix.com/images/81906398219490334973.png 
http://www.shotpix.com/images/25876897987991699423.png 
http://www.shotpix.com/images/70334601397353420891.png 
http://www.shotpix.com/images/24851651226325157342.png 
http://www.shotpix.com/images/69941869044751895125.png